<svg width="25" height="25" viewBox="0 0 25 25" fill="none" xmlns="http://www.w3.org/2000/svg">
<path d="M9.08442 8.82179L8.56432 8.89761L2.22317 9.82209L2.22244 9.8222C1.90659 9.86801 1.77726 10.2609 2.00829 10.4859L2.00858 10.4862L6.59625 14.9566L6.97298 15.3237L6.88391 15.8422L5.79896 22.1566C5.79895 22.1566 5.79895 22.1566 5.79894 22.1567C5.7447 22.474 6.08021 22.7148 6.35876 22.5671L6.36189 22.5654L12.0346 19.5837L12.4999 19.3391L12.9652 19.5837L18.6379 22.5654L18.6381 22.5655C18.9236 22.7157 19.2541 22.4679 19.2009 22.1567C19.2009 22.1566 19.2009 22.1566 19.2009 22.1566L18.1159 15.8422L18.0268 15.3237L18.4036 14.9566L22.9912 10.4862L22.9915 10.4859C23.2226 10.2609 23.0932 9.86801 22.7774 9.8222L22.7767 9.82209L16.4355 8.89761L15.9154 8.82179L15.6829 8.3504L12.8496 2.60572C12.8495 2.60552 12.8494 2.60532 12.8493 2.60512C12.7036 2.31227 12.2914 2.32055 12.1511 2.60388L9.08442 8.82179ZM9.08442 8.82179L9.3169 8.3504L12.1509 2.60425L9.08442 8.82179Z" stroke="#879DA9" stroke-width="2"/>
</svg>
