<svg width="65" height="40" viewBox="0 0 65 40" fill="none" xmlns="http://www.w3.org/2000/svg">
<path d="M11.5356 39.176C9.67956 39.176 7.90356 38.856 6.20756 38.216C4.54356 37.576 3.18356 36.6 2.12756 35.288C1.07156 33.976 0.543563 32.344 0.543563 30.392C0.543563 28.664 0.927563 27.32 1.69556 26.36C2.46356 25.368 3.42356 24.68 4.57556 24.296C5.72756 23.912 6.84756 23.72 7.93556 23.72C6.91156 24.808 6.12756 25.928 5.58356 27.08C5.07156 28.232 4.81556 29.336 4.81556 30.392C4.81556 31.48 5.08756 32.504 5.63156 33.464C6.20756 34.392 7.05556 35.144 8.17556 35.72C9.29556 36.328 10.6876 36.632 12.3516 36.632C13.7916 36.632 15.1836 36.392 16.5276 35.912C17.9036 35.432 19.0236 34.712 19.8876 33.752C20.7836 32.792 21.2316 31.592 21.2316 30.152C21.2316 28.84 20.8476 27.72 20.0796 26.792C19.3436 25.832 18.3836 24.984 17.1996 24.248C16.0156 23.48 14.7676 22.76 13.4556 22.088C12.1436 21.384 10.8956 20.632 9.71156 19.832C8.52756 19.032 7.55156 18.104 6.78356 17.048C6.04756 15.992 5.67956 14.728 5.67956 13.256C5.67956 11.944 5.99956 10.552 6.63956 9.08C7.31156 7.576 8.25556 6.168 9.47156 4.856C10.6876 3.544 12.1596 2.488 13.8876 1.688C15.6156 0.855999 17.5356 0.439999 19.6476 0.439999C21.8556 0.439999 23.4076 0.903998 24.3036 1.832C25.1996 2.76 25.6476 3.976 25.6476 5.48C25.6476 6.664 25.4396 7.928 25.0236 9.272C24.6076 10.616 24.0956 11.896 23.4876 13.112C22.9116 14.328 22.3516 15.368 21.8076 16.232C21.1036 16.072 20.5756 15.8 20.2236 15.416C19.8716 15 19.6956 14.456 19.6956 13.784C19.6956 13.112 19.8236 12.36 20.0796 11.528C20.3676 10.696 20.6876 9.832 21.0396 8.936C21.4236 8.04 21.7436 7.176 21.9996 6.344C22.2876 5.48 22.4316 4.728 22.4316 4.088C22.4316 3.512 22.2556 3.064 21.9036 2.744C21.5836 2.424 20.9116 2.264 19.8876 2.264C18.3516 2.264 16.9436 2.6 15.6636 3.272C14.3836 3.944 13.2636 4.792 12.3036 5.816C11.3756 6.84 10.6556 7.928 10.1436 9.08C9.63156 10.2 9.37556 11.224 9.37556 12.152C9.37556 13.304 9.74356 14.296 10.4796 15.128C11.2156 15.928 12.1596 16.664 13.3116 17.336C14.4956 18.008 15.7276 18.68 17.0076 19.352C18.3196 20.024 19.5516 20.776 20.7036 21.608C21.8876 22.44 22.8476 23.432 23.5836 24.584C24.3196 25.736 24.6876 27.144 24.6876 28.808C24.6876 30.472 24.3036 31.944 23.5356 33.224C22.7996 34.504 21.7916 35.576 20.5116 36.44C19.2316 37.336 17.8076 38.008 16.2396 38.456C14.7036 38.936 13.1356 39.176 11.5356 39.176ZM26.7366 39.176C26.8966 38.696 27.3606 37.592 28.1286 35.864C28.9286 34.168 29.9846 31.896 31.2966 29.048C32.6406 26.168 34.2246 22.76 36.0486 18.824C37.8726 14.888 39.9046 10.456 42.1446 5.528C42.2726 5.272 42.3686 5 42.4326 4.712C42.5286 4.424 42.5766 4.168 42.5766 3.944C42.5766 3.624 42.4806 3.368 42.2886 3.176C42.0966 2.984 41.7286 2.888 41.1846 2.888C39.8406 2.888 38.7366 3.304 37.8726 4.136C37.0406 4.936 36.4166 5.928 36.0006 7.112C35.6166 8.296 35.4246 9.464 35.4246 10.616C35.4246 10.904 35.4406 11.24 35.4726 11.624C35.5046 12.008 35.5526 12.44 35.6166 12.92C34.8486 12.92 34.2086 12.696 33.6966 12.248C33.2166 11.768 32.8486 11.192 32.5926 10.52C32.3366 9.816 32.2086 9.16 32.2086 8.552C32.2086 7.528 32.4966 6.536 33.0726 5.576C33.6806 4.616 34.4646 3.752 35.4246 2.984C36.3846 2.184 37.4406 1.56 38.5926 1.112C39.7766 0.663999 40.9446 0.439999 42.0966 0.439999C43.2806 0.439999 44.2886 0.775998 45.1206 1.448C45.9526 2.088 46.5926 3.272 47.0406 5C47.4886 6.696 47.7126 9.144 47.7126 12.344C47.7126 14.424 47.6326 16.536 47.4726 18.68C47.3446 20.792 47.2006 22.776 47.0406 24.632C46.8806 26.488 46.8006 28.072 46.8006 29.384C47.4406 27.496 48.2246 25.496 49.1526 23.384C50.1126 21.24 51.1366 19.128 52.2246 17.048C53.3126 14.936 54.3846 12.952 55.4406 11.096C56.4966 9.24 57.4406 7.624 58.2726 6.248C59.1366 4.84 59.7926 3.8 60.2406 3.128C60.6886 2.424 61.0886 1.896 61.4406 1.544C61.7926 1.192 62.2726 1.016 62.8806 1.016C63.3286 1.016 64.0326 1.192 64.9926 1.544C64.7046 2.152 64.3686 3.128 63.9846 4.472C63.6006 5.784 63.1846 7.32 62.7366 9.08C62.2566 11 61.7766 13.112 61.2966 15.416C60.8166 17.688 60.3846 19.992 60.0006 22.328C59.6166 24.664 59.2966 26.888 59.0406 29C58.8166 31.08 58.7046 32.92 58.7046 34.52C58.7046 35.352 58.7366 36.008 58.8006 36.488C58.8966 36.968 59.0086 37.384 59.1366 37.736C59.2966 38.12 59.4726 38.6 59.6646 39.176C58.2886 39.176 57.2326 38.968 56.4966 38.552C55.7926 38.136 55.3126 37.464 55.0566 36.536C54.8326 35.64 54.7206 34.44 54.7206 32.936C54.7206 29.384 55.1206 25.656 55.9206 21.752C56.7526 17.816 57.7126 13.768 58.8006 9.608C57.9046 10.888 56.9766 12.408 56.0166 14.168C55.0566 15.928 54.1126 17.784 53.1846 19.736C52.2566 21.688 51.3766 23.624 50.5446 25.544C49.7126 27.432 48.9766 29.192 48.3366 30.824C47.6966 32.424 47.2006 33.768 46.8486 34.856C46.5606 34.952 46.3526 35.016 46.2246 35.048C46.1286 35.08 46.0006 35.096 45.8406 35.096C44.7206 35.096 44.0006 34.424 43.6806 33.08C43.3926 31.704 43.2486 29.832 43.2486 27.464C43.2486 26.216 43.2646 24.888 43.2966 23.48C43.3286 22.04 43.3766 20.584 43.4406 19.112C43.5046 17.608 43.5526 16.12 43.5846 14.648C43.6166 13.176 43.6326 11.768 43.6326 10.424C43.6326 9.944 43.6166 9.464 43.5846 8.984C43.5846 8.504 43.5846 8.04 43.5846 7.592C41.1526 13.256 39.0886 18.104 37.3926 22.136C35.7286 26.136 34.3046 29.4 33.1206 31.928C31.9366 34.424 30.8486 36.248 29.8566 37.4C28.8646 38.584 27.8246 39.176 26.7366 39.176Z" fill="#191970"/>
</svg>
